<?xml version="1.0" encoding="UTF-8" standalone="no"?>
<!-- Created with Inkscape (http://www.inkscape.org/) -->

<svg
   xmlns:dc="http://purl.org/dc/elements/1.1/"
   xmlns:cc="http://creativecommons.org/ns#"
   xmlns:rdf="http://www.w3.org/1999/02/22-rdf-syntax-ns#"
   xmlns:svg="http://www.w3.org/2000/svg"
   xmlns="http://www.w3.org/2000/svg"
   xmlns:sodipodi="http://sodipodi.sourceforge.net/DTD/sodipodi-0.dtd"
   xmlns:inkscape="http://www.inkscape.org/namespaces/inkscape"
   width="135.75771"
   height="38.960701"
   viewBox="0 0 35.919227 10.308352"
   version="1.1"
   id="svg135"
   inkscape:version="0.92.0 r15299"
   sodipodi:docname="macys.svg">
  <defs
     id="defs129" />
  <sodipodi:namedview
     id="base"
     pagecolor="#ffffff"
     bordercolor="#666666"
     borderopacity="1.0"
     inkscape:pageopacity="0.0"
     inkscape:pageshadow="2"
     inkscape:zoom="6.6563918"
     inkscape:cx="67.378847"
     inkscape:cy="18.98035"
     inkscape:document-units="mm"
     inkscape:current-layer="layer1"
     showgrid="false"
     fit-margin-top="0"
     fit-margin-left="0"
     fit-margin-right="0"
     fit-margin-bottom="0"
     units="px"
     inkscape:window-width="1280"
     inkscape:window-height="744"
     inkscape:window-x="-4"
     inkscape:window-y="-4"
     inkscape:window-maximized="1" />
  <metadata
     id="metadata132">
    <rdf:RDF>
      <cc:Work
         rdf:about="">
        <dc:format>image/svg+xml</dc:format>
        <dc:type
           rdf:resource="http://purl.org/dc/dcmitype/StillImage" />
        <dc:title></dc:title>
      </cc:Work>
    </rdf:RDF>
  </metadata>
  <g
     inkscape:label="Layer 1"
     inkscape:groupmode="layer"
     id="layer1"
     transform="translate(-108.41672,-200.99925)">
    <g
       id="g162"
       transform="translate(0.13229333,-0.13228904)">
      <path
         id="Fill-1"
         d="m 143.55794,206.92675 c -0.26923,-0.20437 -0.59461,-0.29258 -0.91215,-0.37861 l -0.0353,-0.009 c -0.32918,-0.0924 -0.52377,-0.17809 -0.65095,-0.28672 -0.12904,-0.11074 -0.19148,-0.25722 -0.202,-0.47434 -0.004,-0.0994 0.009,-0.19485 0.041,-0.28337 0.0317,-0.0874 0.0797,-0.16533 0.14268,-0.23157 0.0705,-0.0746 0.15911,-0.13334 0.26257,-0.1743 0.10782,-0.0423 0.22821,-0.0637 0.36124,-0.0637 0.10856,-0.004 0.21924,0.0139 0.32003,0.0504 0.0932,0.034 0.17348,0.0835 0.23841,0.14729 0.0619,0.0615 0.11112,0.13807 0.14548,0.22764 0.0361,0.0944 0.0552,0.20269 0.0569,0.32215 l 0.004,0.21177 h 0.61428 l -0.003,-0.21874 c -0.007,-0.39062 -0.14187,-0.72484 -0.39119,-0.96625 -0.24675,-0.23935 -0.58843,-0.36852 -0.99039,-0.37412 -0.36721,0 -0.70866,0.11585 -0.96175,0.32625 -0.29707,0.24744 -0.45419,0.60657 -0.45419,1.04219 0.0141,0.41919 0.15152,0.71874 0.43276,0.94197 0.25037,0.20013 0.59624,0.31087 0.93568,0.40892 0.35371,0.0782 0.58689,0.18307 0.73394,0.33017 0.13582,0.13608 0.20211,0.31978 0.2091,0.57699 l 5.2e-4,0.0306 c 0,0.12108 -0.0211,0.23605 -0.0631,0.34188 -0.041,0.10458 -0.10153,0.19895 -0.17934,0.27969 -0.0808,0.083 -0.17704,0.14753 -0.28666,0.1921 -0.11305,0.0453 -0.23649,0.0682 -0.36671,0.0682 -0.28399,0 -0.52433,-0.0883 -0.69509,-0.25504 -0.16994,-0.1659 -0.26232,-0.40139 -0.26736,-0.68145 l -0.004,-0.2124 -0.60407,0.003 -0.0111,0.27271 c 0,0.18289 0.0324,0.35912 0.0966,0.52446 0.0647,0.16452 0.15992,0.3148 0.28342,0.44701 0.14679,0.15644 0.33367,0.28455 0.54071,0.37077 0.20486,0.085 0.43332,0.12997 0.66041,0.12997 0.21321,0 0.41913,-0.0408 0.6121,-0.12188 0.19235,-0.0815 0.36186,-0.19958 0.5041,-0.35072 0.13789,-0.14641 0.24197,-0.31542 0.30914,-0.50186 0.0675,-0.18619 0.0957,-0.38333 0.0842,-0.58564 -0.0252,-0.48325 -0.19267,-0.83565 -0.51132,-1.07674"
         inkscape:connector-curvature="0"
         style="fill:#000000;fill-rule:evenodd;stroke:none;stroke-width:0.23399566" />
      <polygon
         transform="matrix(0.23399566,0,0,0.23399566,140.10195,201.22307)"
         style="fill:#000000;fill-rule:evenodd;stroke:none;stroke-width:1"
         id="Fill-3"
         mask="none"
         points="9.0295762,3.4160427 5.6134802,3.4160427 4.5671828,0.17419668 3.5099781,3.4160427 0.087763418,3.4160427 2.8600659,5.4264342 1.8230795,8.66562 4.5599999,6.6645396 7.3144784,8.6728028 6.2644565,5.42404 " />
      <path
         style="fill:#000000;fill-rule:evenodd;stroke:none;stroke-width:0.23399566"
         inkscape:connector-curvature="0"
         d="m 138.52032,208.46657 -1.60773,-4.04133 h -0.66707 l 0.17243,0.43712 c 0.0141,0.0359 0.45797,1.15966 0.89907,2.27393 l 0.84934,2.14594 -0.8865,2.02537 h 0.68475 l 2.77205,-6.44082 0.17791,-0.44154 h -0.6878 z"
         id="Fill-6"
         mask="none" />
      <path
         id="Fill-9"
         d="m 132.42642,205.58518 c 0.22871,-0.20486 0.43693,-0.34069 0.65568,-0.42784 0.21707,-0.0866 0.4553,-0.12886 0.77059,-0.13272 0.35059,0 0.71089,0.10234 1.01455,0.28834 0.35333,0.21682 0.61515,0.53884 0.7564,0.93108 l 0.0509,0.14255 h 0.66141 l -0.10073,-0.28648 c -0.19602,-0.55782 -0.56155,-1.00789 -1.057,-1.30214 -0.40394,-0.24022 -0.88638,-0.37275 -1.35823,-0.37275 -0.70648,0 -1.35693,0.2625 -1.83152,0.73934 -0.47522,0.47627 -0.73704,1.12934 -0.73704,1.8383 0,0.65244 0.2424,1.29219 0.66489,1.75477 0.48126,0.52719 1.15443,0.80595 1.94581,0.80595 0.52962,0 1.0321,-0.15314 1.45316,-0.44273 0.42088,-0.29058 0.73586,-0.70137 0.91078,-1.18772 l 0.10409,-0.28841 h -0.6667 l -0.0492,0.14567 c -0.10078,0.29338 -0.32065,0.58116 -0.60376,0.7897 -0.33534,0.24719 -0.74725,0.37991 -1.19053,0.38358 -0.25965,0 -0.51138,-0.0474 -0.74756,-0.14056 -0.23456,-0.0936 -0.44471,-0.22939 -0.62487,-0.40394 -0.18594,-0.17984 -0.33086,-0.39472 -0.43083,-0.638 -0.0996,-0.24383 -0.15015,-0.50883 -0.15015,-0.78696 0,-0.27054 0.0539,-0.54724 0.156,-0.80029 0.0999,-0.24881 0.23985,-0.45953 0.40388,-0.60874"
         inkscape:connector-curvature="0"
         style="fill:#000000;fill-rule:evenodd;stroke:none;stroke-width:0.23399566" />
      <path
         id="Fill-11"
         d="m 130.0284,204.42517 v 0.84324 c -0.13191,-0.14971 -0.28673,-0.2856 -0.45829,-0.40108 -0.42946,-0.28927 -0.93717,-0.4421 -1.46897,-0.4421 -0.97434,0 -1.57611,0.44652 -1.90927,0.82071 -0.41857,0.46843 -0.65867,1.10556 -0.65867,1.74829 0,0.64192 0.23985,1.27905 0.65811,1.74785 0.33341,0.37468 0.93549,0.8212 1.90983,0.8212 0.50516,0 0.9607,-0.12082 1.35375,-0.35918 0.21569,-0.13103 0.40749,-0.295 0.57351,-0.48928 v 0.84778 h 0.61515 v -5.13743 z m 0.002,2.89811 c -0.0203,0.12525 -0.0516,0.24327 -0.0941,0.35352 -0.1377,0.39112 -0.37835,0.71706 -0.69533,0.94197 -0.31785,0.22578 -0.70343,0.34486 -1.11452,0.34486 -0.60072,0 -1.10899,-0.21153 -1.46979,-0.61154 -0.31953,-0.35433 -0.50522,-0.84953 -0.50914,-1.35786 0,-0.54531 0.1982,-1.04524 0.55795,-1.40766 0.35949,-0.36242 0.85494,-0.56174 1.39545,-0.56174 0.4022,0 0.78578,0.11335 1.10892,0.32762 0.32146,0.21352 0.56517,0.51555 0.70617,0.8766 0.0448,0.10632 0.0791,0.22049 0.10246,0.33926 0.0233,0.11946 0.0352,0.2467 0.0352,0.38228 0.005,0.1227 -0.003,0.24794 -0.0233,0.37269 z"
         inkscape:connector-curvature="0"
         style="fill:#000000;fill-rule:evenodd;stroke:none;stroke-width:0.23399566" />
      <path
         id="Fill-13"
         d="m 124.34983,204.93411 c -0.16932,-0.16982 -0.37276,-0.29892 -0.60458,-0.38365 -0.4472,-0.16384 -1.05955,-0.17753 -1.56751,0.0368 -0.25429,0.10713 -0.47908,0.265 -0.65008,0.45542 -0.07,0.0768 -0.13128,0.15694 -0.18656,0.24359 -0.063,-0.11056 -0.11772,-0.19043 -0.16104,-0.23612 -0.16932,-0.20268 -0.38496,-0.35986 -0.64143,-0.46706 -0.25124,-0.10464 -0.53161,-0.1578 -0.83414,-0.1578 -0.19124,0 -0.48412,0.0298 -0.79313,0.17168 -0.20256,0.0933 -0.38247,0.2208 -0.53703,0.3806 v -0.55241 h -0.61516 v 5.13743 h 0.61516 v -2.8851 c 0,-0.28087 0.0305,-0.51555 0.0935,-0.71737 0.0602,-0.19403 0.15263,-0.36042 0.28672,-0.51437 0.0972,-0.12749 0.23848,-0.2358 0.40836,-0.31293 0.17598,-0.0791 0.36254,-0.11771 0.53572,-0.108 0.24041,0.008 0.45113,0.0521 0.62649,0.13166 0.17019,0.0774 0.31287,0.18961 0.42305,0.33185 0.10383,0.13913 0.16658,0.26083 0.20984,0.40693 0.0536,0.17816 0.0786,0.39728 0.0786,0.68923 l -0.002,2.9781 h 0.61477 v -2.84252 c 0,-0.30646 0.01,-0.55091 0.0577,-0.74793 0.0423,-0.17399 0.11778,-0.3232 0.25323,-0.49912 0.11411,-0.1489 0.2734,-0.26475 0.47441,-0.34406 0.35918,-0.14249 0.7958,-0.12612 1.09006,-0.0184 0.14822,0.054 0.27564,0.13589 0.38028,0.24464 0.13185,0.13253 0.23232,0.30876 0.29868,0.5239 0.0708,0.22939 0.10663,0.51219 0.10663,0.84093 v 2.84252 h 0.61453 v -2.84252 c 0,-0.39498 -0.0466,-0.74407 -0.13825,-1.03746 -0.0962,-0.30701 -0.2437,-0.55894 -0.43717,-0.74849"
         inkscape:connector-curvature="0"
         style="fill:#000000;fill-rule:evenodd;stroke:none;stroke-width:0.23399566" />
      <polygon
         transform="matrix(0.23399566,0,0,0.23399566,108.41672,201.20158)"
         points="18.649261,27.329912 30.179283,35.731949 25.77382,22.154025 37.292669,13.778059 23.056586,13.778059 18.666819,0.26611018 14.28184,13.778059 0,13.778059 11.569661,22.176371 7.1873425,35.692576 "
         id="Fill-15"
         style="fill:#e11a2b;fill-rule:evenodd;stroke:none;stroke-width:1" />
    </g>
  </g>
</svg>
