<svg width="230" height="30" viewBox="0 0 230 30" fill="none" xmlns="http://www.w3.org/2000/svg">
<path d="M60.5776 12.1141H58.0912L53.2312 3.7129V12.1141H50.9141V0.287109H53.5217L58.2605 8.54394V0.287109H60.5776V12.1141Z" fill="white"/>
<path d="M67.5037 12.4021C65.8264 12.4021 64.5442 11.9465 63.6581 11.0343C62.4691 9.91622 61.875 8.30513 61.875 6.20015C61.875 4.05324 62.4691 2.44215 63.6581 1.36596C64.5442 0.455625 65.8264 0 67.5037 0C69.181 0 70.4631 0.455625 71.3492 1.36779C72.5328 2.44397 73.1251 4.05506 73.1251 6.20197C73.1251 8.30605 72.5328 9.91714 71.3492 11.0362C70.4631 11.9474 69.181 12.4039 67.5037 12.4039V12.4021ZM69.8207 9.25375C70.3883 8.53841 70.673 7.52055 70.673 6.20106C70.673 4.88703 70.3874 3.87008 69.817 3.15201C69.2467 2.43395 68.4756 2.07492 67.5046 2.07492C66.5336 2.07492 65.758 2.43304 65.1794 3.14837C64.6008 3.8637 64.3115 4.88157 64.3115 6.20106C64.3115 7.52055 64.6008 8.53841 65.1794 9.25375C65.758 9.96908 66.5327 10.3272 67.5046 10.3272C68.4756 10.3272 69.2485 9.96908 69.8216 9.25375H69.8207Z" fill="white"/>
<path d="M79.9099 12.4021C78.2326 12.4021 76.9505 11.9465 76.0644 11.0343C74.8753 9.91622 74.2812 8.30513 74.2812 6.20015C74.2812 4.05324 74.8753 2.44215 76.0644 1.36596C76.9505 0.455625 78.2326 0 79.9099 0C81.5872 0 82.8694 0.455625 83.7555 1.36779C84.9391 2.44397 85.5313 4.05506 85.5313 6.20197C85.5313 8.30605 84.9391 9.91714 83.7555 11.0362C82.8694 11.9474 81.5872 12.4039 79.9099 12.4039V12.4021ZM82.226 9.25375C82.7936 8.53841 83.0784 7.52055 83.0784 6.20106C83.0784 4.88703 82.7927 3.87008 82.2224 3.15201C81.652 2.43395 80.8809 2.07492 79.9099 2.07492C78.939 2.07492 78.1633 2.43304 77.5847 3.14837C77.0062 3.8637 76.7169 4.88157 76.7169 6.20106C76.7169 7.52055 77.0062 8.53841 77.5847 9.25375C78.1633 9.96908 78.9381 10.3272 79.9099 10.3272C80.8809 10.3272 81.6538 9.96908 82.2269 9.25375H82.226Z" fill="white"/>
<path d="M92.1678 12.4021C90.4905 12.4021 89.2083 11.9465 88.3222 11.0343C87.1331 9.91622 86.5391 8.30513 86.5391 6.20015C86.5391 4.05324 87.1331 2.44215 88.3222 1.36596C89.2092 0.455625 90.4905 0 92.1678 0C93.845 0 95.1272 0.455625 96.0133 1.36779C97.1969 2.44397 97.7891 4.05506 97.7891 6.20197C97.7891 8.30605 97.1969 9.91714 96.0133 11.0362C95.1272 11.9474 93.845 12.4039 92.1678 12.4039V12.4021ZM94.4848 9.25375C95.0524 8.53841 95.3371 7.52055 95.3371 6.20106C95.3371 4.88703 95.0515 3.87008 94.4811 3.15201C93.9107 2.43395 93.1396 2.07492 92.1687 2.07492C91.1977 2.07492 90.422 2.43304 89.8435 3.14837C89.2649 3.8637 88.9756 4.88157 88.9756 6.20106C88.9756 7.52055 89.2649 8.53841 89.8435 9.25375C90.422 9.96908 91.1968 10.3272 92.1687 10.3272C93.1396 10.3272 93.9126 9.96908 94.4857 9.25375H94.4848Z" fill="white"/>
<path d="M108.754 12.1141H106.304L101.517 3.7129V12.1141H99.2344V0.287109H101.803L106.471 8.54394V0.287109H108.754V12.1141Z" fill="white"/>
<path d="M122.819 6.94647H117.179V9.98783H123.607V12.1141H114.809V0.287109H123.323V2.38121H117.179V4.89284H122.819V6.94739V6.94647Z" fill="white"/>
<path d="M129.457 10.4008C130.038 10.4008 130.51 10.3368 130.871 10.2097C131.559 9.96557 131.903 9.51026 131.903 8.84559C131.903 8.45794 131.733 8.15714 131.392 7.94411C131.051 7.73657 130.515 7.55281 129.785 7.39372L128.538 7.11487C127.312 6.83876 126.465 6.53796 125.997 6.2134C125.202 5.67123 124.806 4.82279 124.806 3.66898C124.806 2.61573 125.19 1.74169 125.956 1.04501C126.723 0.348338 127.851 0 129.337 0C130.578 0 131.637 0.328224 132.514 0.984672C133.391 1.64112 133.85 2.59471 133.893 3.84452H131.527C131.483 3.13778 131.175 2.63493 130.599 2.33688C130.216 2.14031 129.739 2.04157 129.168 2.04157C128.534 2.04157 128.028 2.16957 127.649 2.42465C127.271 2.67973 127.082 3.0363 127.082 3.49344C127.082 3.914 127.268 4.2276 127.642 4.43514C127.882 4.57319 128.393 4.73593 129.177 4.92153L131.207 5.40792C132.096 5.62095 132.768 5.90529 133.221 6.26185C133.925 6.81499 134.277 7.61498 134.277 8.66273C134.277 9.737 133.865 10.6293 133.042 11.3388C132.218 12.0483 131.056 12.4039 129.553 12.4039C128.019 12.4039 126.812 12.0547 125.933 11.3553C125.053 10.6558 124.613 9.69495 124.613 8.47165H126.963C127.037 9.00833 127.184 9.41061 127.403 9.67575C127.802 10.1594 128.487 10.4017 129.457 10.4017V10.4008Z" fill="white"/>
<path d="M144.09 0.287109V2.38121H140.574V12.1141H138.102V2.38121H134.57V0.287109H144.089H144.09Z" fill="white"/>
<path d="M143.082 9.66211H145.534V12.1141H143.082V9.66211Z" fill="white"/>
<path d="M151.86 2.8533C151.588 2.52704 151.2 2.36437 150.694 2.36437C150.002 2.36437 149.53 2.62354 149.28 3.14188C149.136 3.44148 149.051 3.91662 149.025 4.56914H146.812C146.849 3.58026 147.028 2.7807 147.347 2.17137C147.954 1.01155 149.033 0.431641 150.582 0.431641C151.807 0.431641 152.781 0.772603 153.506 1.45361C154.23 2.13553 154.592 3.03711 154.592 4.16017C154.592 5.0213 154.336 5.78502 153.825 6.45316C153.489 6.89706 152.939 7.3915 152.172 7.93648L151.261 8.58624C150.69 8.99246 150.301 9.28655 150.091 9.46852C149.88 9.65049 149.703 9.86094 149.559 10.1017H154.616V12.1144H146.684C146.705 11.2809 146.883 10.519 147.219 9.82878C147.544 9.05403 148.311 8.23333 149.52 7.3676C150.569 6.61399 151.248 6.0736 151.557 5.74826C152.032 5.24095 152.269 4.68494 152.269 4.08021C152.269 3.58853 152.133 3.17956 151.861 2.8533H151.86Z" fill="white"/>
<path d="M159.375 12.4029C157.884 12.4029 156.837 11.8856 156.237 10.8501C155.636 9.81547 155.336 8.3397 155.336 6.4246C155.336 4.50949 155.636 3.03189 156.237 1.99179C156.837 0.951691 157.883 0.431641 159.375 0.431641C160.866 0.431641 161.913 0.951691 162.517 1.99179C163.115 3.03189 163.413 4.50949 163.413 6.4246C163.413 8.3397 163.113 9.81455 162.512 10.8501C161.911 11.8847 160.865 12.4029 159.374 12.4029H159.375ZM160.724 9.48161C160.934 8.77721 161.038 7.7582 161.038 6.4246C161.038 5.02679 160.932 3.9922 160.719 3.31989C160.506 2.64759 160.058 2.31189 159.374 2.31189C158.69 2.31189 158.238 2.64759 158.017 3.31989C157.796 3.9922 157.685 5.02679 157.685 6.4246C157.685 7.7582 157.796 8.77904 158.017 9.48528C158.237 10.1924 158.69 10.5456 159.374 10.5456C160.058 10.5456 160.507 10.1906 160.723 9.48161H160.724Z" fill="white"/>
<path d="M169.169 2.8533C168.897 2.52704 168.509 2.36437 168.003 2.36437C167.31 2.36437 166.839 2.62354 166.589 3.14188C166.445 3.44148 166.36 3.91662 166.333 4.56914H164.12C164.158 3.58026 164.336 2.7807 164.656 2.17137C165.263 1.01155 166.342 0.431641 167.891 0.431641C169.116 0.431641 170.09 0.772603 170.814 1.45361C171.539 2.13553 171.9 3.03711 171.9 4.16017C171.9 5.0213 171.645 5.78502 171.134 6.45316C170.798 6.89706 170.248 7.3915 169.48 7.93648L168.569 8.58624C167.999 8.99246 167.61 9.28655 167.399 9.46852C167.189 9.65049 167.012 9.86094 166.868 10.1017H171.925V12.1144H163.992C164.013 11.2809 164.192 10.519 164.528 9.82878C164.853 9.05403 165.619 8.23333 166.829 7.3676C167.878 6.61399 168.556 6.0736 168.866 5.74826C169.34 5.24095 169.577 4.68494 169.577 4.08021C169.577 3.58853 169.442 3.17956 169.17 2.8533H169.169Z" fill="white"/>
<path d="M180.725 7.83239V9.61843H179.423V12.1167H177.207V9.61843H172.648V7.62497L176.881 0.578125H179.423V7.83239H180.725ZM174.324 7.83239H177.207V2.81939L174.324 7.83239Z" fill="white"/>
<path d="M1.61576 20.3075C1.13112 20.2964 0.740518 20.1427 0.444853 19.8474C0.148284 19.552 0 19.1572 0 18.664C0 18.1707 0.148284 17.7732 0.443949 17.4723C0.739614 17.1704 1.13022 17.0205 1.61485 17.0205C2.09949 17.0205 2.49009 17.1714 2.78576 17.4723C3.08142 17.7741 3.22971 18.1707 3.22971 18.664C3.22971 19.1572 3.08142 19.5547 2.78576 19.8556C2.48919 20.1575 2.09949 20.3075 1.61485 20.3075H1.61576ZM1.61576 25.2407C1.13112 25.2297 0.740518 25.076 0.444853 24.7806C0.148284 24.4843 0 24.0896 0 23.5963C0 23.1031 0.148284 22.7055 0.443949 22.4046C0.739614 22.1028 1.13022 21.9528 1.61485 21.9528C2.09949 21.9528 2.49009 22.1037 2.78576 22.4046C3.08142 22.7065 3.22971 23.1031 3.22971 23.5963C3.22971 24.0896 3.08142 24.4871 2.78576 24.788C2.48919 25.0898 2.09949 25.2398 1.61485 25.2398L1.61576 25.2407ZM6.46213 20.3075C5.97749 20.2964 5.58689 20.1427 5.29122 19.8474C4.99465 19.551 4.84727 19.1572 4.84727 18.663C4.84727 18.1698 4.99556 17.7723 5.29122 17.4714C5.58779 17.1695 5.97749 17.0195 6.46213 17.0195C6.94677 17.0195 7.33737 17.1704 7.63303 17.4714C7.9296 17.7732 8.07698 18.1698 8.07698 18.663C8.07698 19.1563 7.9287 19.5538 7.63303 19.8547C7.33646 20.1565 6.94677 20.3065 6.46213 20.3065V20.3075Z" fill="white"/>
<path d="M13.1315 19.7289C12.8401 19.4299 12.6953 19.0324 12.6953 18.5337C12.6953 18.0359 12.841 17.6347 13.1315 17.331C13.422 17.0264 13.8057 16.875 14.2819 16.875C14.758 16.875 15.1418 17.0273 15.4322 17.331C15.7227 17.6356 15.8684 18.0359 15.8684 18.5337C15.8684 19.0315 15.7227 19.4327 15.4322 19.7363C15.1409 20.041 14.758 20.1923 14.2819 20.1923C13.8057 20.1812 13.422 20.0261 13.1315 19.728V19.7289Z" fill="white"/>
<path d="M26.8859 25.1524C26.3926 25.1414 25.995 24.9894 25.6941 24.6972C25.3922 24.404 25.2422 24.0143 25.2422 23.5254C25.2422 23.0375 25.3931 22.6441 25.6941 22.3464C25.995 22.0478 26.3926 21.8994 26.8859 21.8994C27.3792 21.8994 27.7767 22.0487 28.0777 22.3464C28.3786 22.6451 28.5296 23.0375 28.5296 23.5254C28.5296 24.0134 28.3786 24.4067 28.0777 24.7044C27.7758 25.0031 27.3792 25.1515 26.8859 25.1515V25.1524ZM26.8859 30.0004C26.3926 29.9895 25.995 29.8374 25.6941 29.5452C25.3922 29.252 25.2422 28.8624 25.2422 28.3744C25.2422 27.8864 25.3931 27.5013 25.6941 27.219C25.995 26.9368 26.3926 26.7957 26.8859 26.7957C27.3792 26.7957 27.7767 26.9368 28.0777 27.219C28.3786 27.5013 28.5296 27.8864 28.5296 28.3744C28.5296 28.8624 28.3786 29.2557 28.0777 29.5534C27.7758 29.852 27.3792 30.0004 26.8859 30.0004ZM31.8197 20.2725C31.3264 20.2616 30.9288 20.1095 30.6279 19.8173C30.326 19.5241 30.176 19.1345 30.176 18.6456C30.176 18.1576 30.327 17.7643 30.6279 17.4666C30.9288 17.1679 31.3264 17.0195 31.8197 17.0195C32.313 17.0195 32.7106 17.1688 33.0115 17.4666C33.3125 17.7652 33.4634 18.1576 33.4634 18.6456C33.4634 19.1335 33.3125 19.5268 33.0115 19.8246C32.7097 20.1232 32.313 20.2716 31.8197 20.2716V20.2725Z" fill="white"/>
<path d="M39.5775 20.3078C39.0841 20.2968 38.6865 20.1431 38.3855 19.8477C38.0836 19.5513 37.9336 19.1574 37.9336 18.6632C37.9336 18.1699 38.0845 17.7724 38.3855 17.4714C38.6865 17.1695 39.0841 17.0195 39.5775 17.0195C40.0708 17.0195 40.4684 17.1705 40.7694 17.4714C41.0704 17.7733 41.2213 18.1699 41.2213 18.6632C41.2213 19.1565 41.0704 19.5541 40.7694 19.855C40.4675 20.1569 40.0708 20.3069 39.5775 20.3069V20.3078ZM39.5775 25.2407C39.0841 25.2297 38.6865 25.076 38.3855 24.7806C38.0836 24.4842 37.9336 24.0903 37.9336 23.5961C37.9336 23.1028 38.0845 22.7053 38.3855 22.4043C38.6865 22.1025 39.0841 21.9524 39.5775 21.9524C40.0708 21.9524 40.4684 22.1034 40.7694 22.4043C41.0704 22.7062 41.2213 23.1028 41.2213 23.5961C41.2213 24.0894 41.0704 24.487 40.7694 24.7879C40.4675 25.0898 40.0708 25.2398 39.5775 25.2398V25.2407ZM44.5109 25.2407C44.0176 25.2297 43.62 25.076 43.319 24.7806C43.0171 24.4842 42.8671 24.0903 42.8671 23.5961C42.8671 23.1028 43.018 22.7053 43.319 22.4043C43.6209 22.1025 44.0176 21.9524 44.5109 21.9524C45.0043 21.9524 45.4019 22.1034 45.7029 22.4043C46.0048 22.7062 46.1548 23.1028 46.1548 23.5961C46.1548 24.0894 46.0039 24.487 45.7029 24.7879C45.401 25.0898 45.0043 25.2398 44.5109 25.2398V25.2407Z" fill="white"/>
<path d="M52.3846 25.0965C51.8999 25.0857 51.5092 24.9347 51.2135 24.6444C50.9169 24.3533 50.7695 23.9663 50.7695 23.4808C50.7695 22.9961 50.9178 22.6055 51.2135 22.3099C51.5101 22.0133 51.8999 21.8659 52.3846 21.8659C52.8693 21.8659 53.2599 22.0142 53.5556 22.3099C53.8522 22.6064 54.0005 22.9961 54.0005 23.4808C54.0005 23.9654 53.8522 24.356 53.5556 24.6517C53.259 24.9482 52.8693 25.0956 52.3846 25.0956V25.0965ZM57.2315 20.2501C56.7468 20.2393 56.3561 20.0883 56.0604 19.7981C55.7638 19.5069 55.6164 19.1199 55.6164 18.6344C55.6164 18.1497 55.7647 17.7591 56.0604 17.4635C56.357 17.1669 56.7468 17.0195 57.2315 17.0195C57.7162 17.0195 58.1068 17.1678 58.4025 17.4635C58.6991 17.76 58.8465 18.1497 58.8465 18.6344C58.8465 19.119 58.6982 19.5096 58.4025 19.8053C58.1059 20.1019 57.7162 20.2492 57.2315 20.2492V20.2501Z" fill="white"/>
<path d="M63.7643 19.8175C63.4677 19.5243 63.3203 19.1346 63.3203 18.6457C63.3203 18.1576 63.4686 17.7643 63.7643 17.4666C64.0599 17.1679 64.4505 17.0195 64.9352 17.0195C65.4198 17.0195 65.8104 17.1689 66.1061 17.4666C66.4017 17.7652 66.55 18.1576 66.55 18.6457C66.55 19.1337 66.4017 19.527 66.1061 19.8248C65.8095 20.1234 65.4198 20.2718 64.9352 20.2718C64.4505 20.2609 64.0599 20.1088 63.7643 19.8166V19.8175ZM63.7643 29.5461C63.4677 29.2529 63.3203 28.8632 63.3203 28.3743C63.3203 27.8862 63.4686 27.5011 63.7643 27.2188C64.0599 26.9366 64.4505 26.7955 64.9352 26.7955C65.4198 26.7955 65.8104 26.9366 66.1061 27.2188C66.4017 27.5011 66.55 27.8862 66.55 28.3743C66.55 28.8623 66.4017 29.2556 66.1061 29.5533C65.8095 29.852 65.4198 30.0004 64.9352 30.0004C64.4505 29.9895 64.0599 29.8374 63.7643 29.5451V29.5461ZM68.6115 24.6986C68.315 24.4054 68.1676 24.0157 68.1676 23.5268C68.1676 23.0388 68.3159 22.6455 68.6115 22.3477C68.9072 22.0491 69.2978 21.9007 69.7824 21.9007C70.2671 21.9007 70.6577 22.05 70.9533 22.3477C71.249 22.6464 71.3973 23.0388 71.3973 23.5268C71.3973 24.0148 71.249 24.4082 70.9533 24.7059C70.6568 25.0045 70.2671 25.1529 69.7824 25.1529C69.2978 25.142 68.9072 24.99 68.6115 24.6977V24.6986Z" fill="white"/>
<path d="M76.3191 19.8175C76.0172 19.5243 75.8672 19.1346 75.8672 18.6457C75.8672 18.1576 76.0181 17.7643 76.3191 17.4666C76.6201 17.1679 77.0177 17.0195 77.5111 17.0195C78.0044 17.0195 78.402 17.1689 78.703 17.4666C79.004 17.7652 79.1549 18.1576 79.1549 18.6457C79.1549 19.1337 79.004 19.527 78.703 19.8248C78.4011 20.1234 78.0044 20.2718 77.5111 20.2718C77.0177 20.2609 76.6201 20.1088 76.3191 19.8166V19.8175ZM76.3191 29.5461C76.0172 29.2529 75.8672 28.8632 75.8672 28.3743C75.8672 27.8862 76.0181 27.5011 76.3191 27.2188C76.6201 26.9366 77.0177 26.7955 77.5111 26.7955C78.0044 26.7955 78.402 26.9366 78.703 27.2188C79.004 27.5011 79.1549 27.8862 79.1549 28.3743C79.1549 28.8623 79.004 29.2556 78.703 29.5533C78.4011 29.852 78.0044 30.0004 77.5111 30.0004C77.0177 29.9895 76.6201 29.8374 76.3191 29.5452V29.5461ZM81.2526 19.8175C80.9507 19.5243 80.8006 19.1346 80.8006 18.6457C80.8006 18.1576 80.9516 17.7643 81.2526 17.4666C81.5545 17.1679 81.9512 17.0195 82.4445 17.0195C82.9379 17.0195 83.3355 17.1689 83.6365 17.4666C83.9384 17.7652 84.0884 18.1576 84.0884 18.6457C84.0884 19.1337 83.9374 19.527 83.6365 19.8248C83.3346 20.1234 82.9379 20.2718 82.4445 20.2718C81.9512 20.2609 81.5536 20.1088 81.2526 19.8166V19.8175ZM81.2526 24.6977C80.9507 24.4045 80.8006 24.0148 80.8006 23.5259C80.8006 23.0379 80.9516 22.6445 81.2526 22.3468C81.5545 22.0482 81.9512 21.8998 82.4445 21.8998C82.9379 21.8998 83.3355 22.0491 83.6365 22.3468C83.9384 22.6455 84.0884 23.0379 84.0884 23.5259C84.0884 24.0139 83.9374 24.4073 83.6365 24.705C83.3346 25.0036 82.9379 25.152 82.4445 25.152C81.9512 25.1411 81.5536 24.9891 81.2526 24.6968V24.6977Z" fill="white"/>
<path d="M96.4056 20.3075C95.9122 20.2964 95.5146 20.1427 95.2136 19.8474C94.9118 19.551 94.7617 19.1572 94.7617 18.663C94.7617 18.1698 94.9127 17.7723 95.2136 17.4714C95.5146 17.1695 95.9122 17.0195 96.4056 17.0195C96.8989 17.0195 97.2966 17.1704 97.5975 17.4714C97.8985 17.7732 98.0495 18.1698 98.0495 18.663C98.0495 19.1563 97.8985 19.5538 97.5975 19.8547C97.2956 20.1565 96.8989 20.3065 96.4056 20.3065V20.3075ZM101.339 25.2407C100.846 25.2297 100.448 25.076 100.147 24.7806C99.8452 24.4843 99.6952 24.0905 99.6952 23.5963C99.6952 23.1031 99.8461 22.7055 100.147 22.4046C100.449 22.1028 100.846 21.9528 101.339 21.9528C101.832 21.9528 102.23 22.1037 102.531 22.4046C102.833 22.7065 102.983 23.1031 102.983 23.5963C102.983 24.0896 102.832 24.4871 102.531 24.788C102.229 25.0898 101.832 25.2398 101.339 25.2398V25.2407Z" fill="white"/>
<path d="M107.897 19.8175C107.601 19.5243 107.453 19.1346 107.453 18.6457C107.453 18.1576 107.601 17.7643 107.897 17.4666C108.193 17.1679 108.583 17.0195 109.068 17.0195C109.553 17.0195 109.943 17.1689 110.239 17.4666C110.535 17.7652 110.683 18.1576 110.683 18.6457C110.683 19.1337 110.535 19.527 110.239 19.8248C109.943 20.1234 109.553 20.2718 109.068 20.2718C108.583 20.2609 108.193 20.1088 107.897 19.8166V19.8175ZM107.897 29.5461C107.601 29.2529 107.453 28.8632 107.453 28.3743C107.453 27.8862 107.601 27.5011 107.897 27.2188C108.193 26.9366 108.583 26.7955 109.068 26.7955C109.553 26.7955 109.943 26.9366 110.239 27.2188C110.535 27.5011 110.683 27.8862 110.683 28.3743C110.683 28.8623 110.535 29.2556 110.239 29.5533C109.943 29.852 109.553 30.0004 109.068 30.0004C108.583 29.9895 108.193 29.8374 107.897 29.5452V29.5461ZM112.744 19.8175C112.447 19.5243 112.3 19.1346 112.3 18.6457C112.3 18.1576 112.448 17.7643 112.744 17.4666C113.041 17.1679 113.43 17.0195 113.915 17.0195C114.4 17.0195 114.79 17.1689 115.086 17.4666C115.383 17.7652 115.53 18.1576 115.53 18.6457C115.53 19.1337 115.382 19.527 115.086 19.8248C114.79 20.1234 114.4 20.2718 113.915 20.2718C113.43 20.2609 113.04 20.1088 112.744 19.8166V19.8175ZM112.744 24.6977C112.447 24.4045 112.3 24.0148 112.3 23.5259C112.3 23.0379 112.448 22.6445 112.744 22.3468C113.041 22.0482 113.43 21.8998 113.915 21.8998C114.4 21.8998 114.79 22.0491 115.086 22.3468C115.383 22.6455 115.53 23.0379 115.53 23.5259C115.53 24.0139 115.382 24.4073 115.086 24.705C114.79 25.0036 114.4 25.152 113.915 25.152C113.43 25.1411 113.04 24.9891 112.744 24.6968V24.6977Z" fill="white"/>
<path d="M121.76 20.3078C121.275 20.2968 120.884 20.1431 120.589 19.8477C120.292 19.5513 120.145 19.1574 120.145 18.6632C120.145 18.1699 120.293 17.7724 120.589 17.4714C120.884 17.1695 121.275 17.0195 121.76 17.0195C122.244 17.0195 122.635 17.1705 122.931 17.4714C123.226 17.7733 123.375 18.1699 123.375 18.6632C123.375 19.1565 123.226 19.5541 122.931 19.855C122.634 20.1569 122.244 20.3069 121.76 20.3069V20.3078ZM121.76 25.2407C121.275 25.2297 120.884 25.076 120.589 24.7806C120.292 24.4842 120.145 24.0903 120.145 23.5961C120.145 23.1019 120.293 22.7053 120.589 22.4043C120.884 22.1025 121.275 21.9524 121.76 21.9524C122.244 21.9524 122.635 22.1034 122.931 22.4043C123.226 22.7062 123.375 23.1028 123.375 23.5961C123.375 24.0894 123.226 24.487 122.931 24.7879C122.634 25.0898 122.244 25.2398 121.76 25.2398V25.2407ZM126.606 20.3078C126.122 20.2968 125.731 20.1431 125.435 19.8477C125.139 19.5513 124.991 19.1574 124.991 18.6632C124.991 18.1699 125.14 17.7724 125.435 17.4714C125.732 17.1695 126.122 17.0195 126.606 17.0195C127.091 17.0195 127.482 17.1705 127.778 17.4714C128.074 17.7733 128.222 18.1699 128.222 18.6632C128.222 19.1565 128.073 19.5541 127.778 19.855C127.481 20.1569 127.091 20.3069 126.606 20.3069V20.3078ZM126.606 25.2407C126.122 25.2297 125.731 25.076 125.435 24.7806C125.139 24.4842 124.991 24.0903 124.991 23.5961C124.991 23.1028 125.14 22.7053 125.435 22.4043C125.732 22.1025 126.122 21.9524 126.606 21.9524C127.091 21.9524 127.482 22.1034 127.778 22.4043C128.074 22.7062 128.222 23.1028 128.222 23.5961C128.222 24.0894 128.073 24.487 127.778 24.7879C127.481 25.0898 127.091 25.2398 126.606 25.2398V25.2407Z" fill="white"/>
<path d="M134.455 25.0965C133.97 25.0857 133.58 24.9347 133.284 24.6444C132.987 24.3533 132.84 23.9663 132.84 23.4808C132.84 22.9961 132.988 22.6055 133.284 22.3099C133.58 22.0133 133.97 21.8659 134.455 21.8659C134.94 21.8659 135.33 22.0142 135.626 22.3099C135.923 22.6064 136.071 22.9961 136.071 23.4808C136.071 23.9654 135.923 24.356 135.626 24.6517C135.329 24.9482 134.94 25.0956 134.455 25.0956V25.0965ZM139.302 20.2501C138.817 20.2393 138.426 20.0883 138.131 19.7981C137.834 19.5069 137.687 19.1199 137.687 18.6344C137.687 18.1497 137.835 17.7591 138.131 17.4635C138.427 17.1669 138.817 17.0195 139.302 17.0195C139.786 17.0195 140.177 17.1678 140.473 17.4635C140.769 17.76 140.917 18.1497 140.917 18.6344C140.917 19.119 140.769 19.5096 140.473 19.8053C140.176 20.1019 139.786 20.2492 139.302 20.2492V20.2501Z" fill="white"/>
<path d="M145.839 19.8175C145.537 19.5243 145.387 19.1346 145.387 18.6457C145.387 18.1567 145.538 17.7643 145.839 17.4666C146.14 17.1679 146.537 17.0195 147.031 17.0195C147.524 17.0195 147.922 17.1689 148.223 17.4666C148.524 17.7652 148.674 18.1576 148.674 18.6457C148.674 19.1337 148.524 19.527 148.223 19.8248C147.921 20.1234 147.524 20.2718 147.031 20.2718C146.537 20.2609 146.14 20.1088 145.839 19.8166V19.8175ZM145.839 29.5461C145.537 29.2529 145.387 28.8632 145.387 28.3743C145.387 27.8862 145.538 27.5011 145.839 27.2188C146.14 26.9366 146.537 26.7955 147.031 26.7955C147.524 26.7955 147.922 26.9366 148.223 27.2188C148.524 27.5011 148.674 27.8862 148.674 28.3743C148.674 28.8623 148.524 29.2556 148.223 29.5533C147.921 29.852 147.524 30.0004 147.031 30.0004C146.537 29.9895 146.14 29.8374 145.839 29.5452V29.5461ZM150.772 19.8175C150.47 19.5243 150.32 19.1346 150.32 18.6457C150.32 18.1576 150.471 17.7643 150.772 17.4666C151.074 17.1679 151.471 17.0195 151.964 17.0195C152.457 17.0195 152.855 17.1689 153.156 17.4666C153.458 17.7652 153.608 18.1576 153.608 18.6457C153.608 19.1337 153.457 19.527 153.156 19.8248C152.854 20.1234 152.457 20.2718 151.964 20.2718C151.471 20.2609 151.073 20.1088 150.772 19.8166V19.8175ZM150.772 24.6977C150.47 24.4045 150.32 24.0148 150.32 23.5259C150.32 23.0379 150.471 22.6445 150.772 22.3468C151.074 22.0482 151.471 21.8998 151.964 21.8998C152.457 21.8998 152.855 22.0491 153.156 22.3468C153.458 22.6455 153.608 23.0379 153.608 23.5259C153.608 24.0139 153.457 24.4073 153.156 24.705C152.854 25.0036 152.457 25.152 151.964 25.152C151.471 25.1411 151.073 24.9891 150.772 24.6968V24.6977Z" fill="white"/>
<path d="M159.722 20.3075C159.229 20.2964 158.831 20.1427 158.53 19.8474C158.228 19.551 158.078 19.1572 158.078 18.663C158.078 18.1698 158.229 17.7723 158.53 17.4714C158.831 17.1695 159.229 17.0195 159.722 17.0195C160.215 17.0195 160.613 17.1704 160.914 17.4714C161.215 17.7732 161.366 18.1698 161.366 18.663C161.366 19.1563 161.215 19.5538 160.914 19.8547C160.612 20.1565 160.215 20.3065 159.722 20.3065V20.3075ZM164.655 25.2407C164.162 25.2297 163.764 25.076 163.464 24.7806C163.162 24.4843 163.012 24.0905 163.012 23.5963C163.012 23.1031 163.163 22.7055 163.464 22.4046C163.765 22.1028 164.162 21.9528 164.655 21.9528C165.149 21.9528 165.546 22.1037 165.847 22.4046C166.149 22.7065 166.299 23.1031 166.299 23.5963C166.299 24.0896 166.148 24.4871 165.847 24.788C165.546 25.0898 165.149 25.2398 164.655 25.2398V25.2407Z" fill="white"/>
<path d="M172.388 20.3075C171.904 20.2964 171.513 20.1427 171.217 19.8474C170.921 19.551 170.773 19.1572 170.773 18.663C170.773 18.1689 170.922 17.7723 171.217 17.4714C171.513 17.1695 171.904 17.0195 172.388 17.0195C172.873 17.0195 173.264 17.1704 173.559 17.4714C173.855 17.7732 174.003 18.1698 174.003 18.663C174.003 19.1563 173.855 19.5538 173.559 19.8547C173.263 20.1565 172.873 20.3065 172.388 20.3065V20.3075ZM177.236 25.2407C176.751 25.2297 176.36 25.076 176.065 24.7806C175.768 24.4843 175.621 24.0905 175.621 23.5963C175.621 23.1031 175.769 22.7055 176.065 22.4046C176.361 22.1028 176.751 21.9528 177.236 21.9528C177.72 21.9528 178.111 22.1037 178.406 22.4046C178.703 22.7065 178.85 23.1031 178.85 23.5963C178.85 24.0896 178.702 24.4871 178.406 24.788C178.11 25.0898 177.72 25.2398 177.236 25.2398V25.2407Z" fill="white"/>
<path d="M184.964 20.2805C184.471 20.2695 184.073 20.1171 183.772 19.8242C183.47 19.5303 183.32 19.1397 183.32 18.6496C183.32 18.1604 183.471 17.7661 183.772 17.4677C184.073 17.1683 184.471 17.0195 184.964 17.0195C185.457 17.0195 185.855 17.1692 186.156 17.4677C186.457 17.767 186.608 18.1604 186.608 18.6496C186.608 19.1387 186.457 19.533 186.156 19.8315C185.854 20.1308 185.457 20.2796 184.964 20.2796V20.2805ZM184.964 25.1733C184.471 25.1623 184.073 25.0099 183.772 24.717C183.47 24.4231 183.32 24.0325 183.32 23.5424C183.32 23.0532 183.471 22.6589 183.772 22.3605C184.073 22.0611 184.471 21.9123 184.964 21.9123C185.457 21.9123 185.855 22.062 186.156 22.3605C186.457 22.6598 186.608 23.0532 186.608 23.5424C186.608 24.0316 186.457 24.4258 186.156 24.7243C185.854 25.0236 185.457 25.1724 184.964 25.1724V25.1733ZM184.964 30.0004C184.471 29.9894 184.073 29.837 183.772 29.5441C183.47 29.2502 183.32 28.8596 183.32 28.3695C183.32 27.8803 183.471 27.4997 183.772 27.2277C184.073 26.9557 184.471 26.8197 184.964 26.8197C185.457 26.8197 185.855 26.9557 186.156 27.2277C186.457 27.4997 186.608 27.8803 186.608 28.3695C186.608 28.8586 186.457 29.2529 186.156 29.5514C185.854 29.8507 185.457 29.9995 184.964 29.9995V30.0004ZM189.898 25.1733C189.405 25.1623 189.007 25.0099 188.706 24.717C188.404 24.4231 188.254 24.0325 188.254 23.5424C188.254 23.0532 188.405 22.6589 188.706 22.3605C189.008 22.0611 189.405 21.9123 189.898 21.9123C190.391 21.9123 190.789 22.062 191.09 22.3605C191.392 22.6598 191.542 23.0532 191.542 23.5424C191.542 24.0316 191.391 24.4258 191.09 24.7243C190.788 25.0236 190.391 25.1724 189.898 25.1724V25.1733Z" fill="white"/>
<path d="M197.771 25.0965C197.287 25.0857 196.896 24.9347 196.6 24.6444C196.304 24.3533 196.156 23.9663 196.156 23.4808C196.156 22.9961 196.305 22.6055 196.6 22.3099C196.897 22.0133 197.287 21.8659 197.771 21.8659C198.256 21.8659 198.647 22.0142 198.942 22.3099C199.239 22.6064 199.387 22.9961 199.387 23.4808C199.387 23.9654 199.239 24.356 198.942 24.6517C198.646 24.9482 198.256 25.0956 197.771 25.0956V25.0965ZM202.618 20.2501C202.133 20.2393 201.743 20.0883 201.447 19.7981C201.151 19.5069 201.003 19.1199 201.003 18.6344C201.003 18.1497 201.151 17.7591 201.447 17.4635C201.744 17.1669 202.133 17.0195 202.618 17.0195C203.103 17.0195 203.494 17.1678 203.789 17.4635C204.086 17.76 204.233 18.1497 204.233 18.6344C204.233 19.119 204.085 19.5096 203.789 19.8053C203.493 20.1019 203.103 20.2492 202.618 20.2492V20.2501Z" fill="white"/>
<path d="M209.155 19.8175C208.853 19.5243 208.703 19.1346 208.703 18.6457C208.703 18.1567 208.854 17.7643 209.155 17.4666C209.456 17.1679 209.854 17.0195 210.347 17.0195C210.84 17.0195 211.238 17.1689 211.539 17.4666C211.84 17.7652 211.991 18.1576 211.991 18.6457C211.991 19.1337 211.84 19.527 211.539 19.8248C211.237 20.1234 210.84 20.2718 210.347 20.2718C209.854 20.2609 209.456 20.1088 209.155 19.8166V19.8175ZM209.155 29.5461C208.853 29.2529 208.703 28.8632 208.703 28.3743C208.703 27.8853 208.854 27.5011 209.155 27.2188C209.456 26.9366 209.854 26.7955 210.347 26.7955C210.84 26.7955 211.238 26.9366 211.539 27.2188C211.84 27.5011 211.991 27.8862 211.991 28.3743C211.991 28.8623 211.84 29.2556 211.539 29.5533C211.237 29.852 210.84 30.0004 210.347 30.0004C209.854 29.9895 209.456 29.8374 209.155 29.5452V29.5461ZM214.089 19.8175C213.787 19.5243 213.637 19.1346 213.637 18.6457C213.637 18.1567 213.788 17.7643 214.089 17.4666C214.39 17.1679 214.787 17.0195 215.28 17.0195C215.774 17.0195 216.171 17.1689 216.472 17.4666C216.774 17.7652 216.924 18.1576 216.924 18.6457C216.924 19.1337 216.773 19.527 216.472 19.8248C216.171 20.1234 215.774 20.2718 215.28 20.2718C214.787 20.2609 214.389 20.1088 214.089 19.8166V19.8175ZM214.089 24.6977C213.787 24.4045 213.637 24.0148 213.637 23.5259C213.637 23.0379 213.788 22.6445 214.089 22.3468C214.39 22.0482 214.787 21.8998 215.28 21.8998C215.774 21.8998 216.171 22.0491 216.472 22.3468C216.774 22.6455 216.924 23.0379 216.924 23.5259C216.924 24.0139 216.773 24.4073 216.472 24.705C216.171 25.0036 215.774 25.152 215.28 25.152C214.787 25.1411 214.389 24.9891 214.089 24.6968V24.6977Z" fill="white"/>
<path d="M223.038 20.3078C222.545 20.2968 222.147 20.1431 221.846 19.8477C221.545 19.5513 221.395 19.1574 221.395 18.6632C221.395 18.1699 221.545 17.7724 221.846 17.4714C222.147 17.1695 222.545 17.0195 223.038 17.0195C223.532 17.0195 223.929 17.1705 224.23 17.4714C224.531 17.7733 224.682 18.1699 224.682 18.6632C224.682 19.1565 224.531 19.5541 224.23 19.855C223.928 20.1569 223.532 20.3069 223.038 20.3069V20.3078ZM223.038 25.2407C222.545 25.2297 222.147 25.076 221.846 24.7806C221.545 24.4842 221.395 24.0903 221.395 23.5961C221.395 23.1028 221.545 22.7053 221.846 22.4043C222.147 22.1025 222.545 21.9524 223.038 21.9524C223.532 21.9524 223.929 22.1034 224.23 22.4043C224.531 22.7062 224.682 23.1028 224.682 23.5961C224.682 24.0894 224.531 24.487 224.23 24.7879C223.928 25.0898 223.532 25.2398 223.038 25.2398V25.2407ZM227.972 20.3078C227.479 20.2968 227.081 20.1431 226.78 19.8477C226.478 19.5513 226.328 19.1574 226.328 18.6632C226.328 18.1699 226.479 17.7724 226.78 17.4714C227.082 17.1695 227.479 17.0195 227.972 17.0195C228.465 17.0195 228.863 17.1705 229.164 17.4714C229.466 17.7733 229.616 18.1699 229.616 18.6632C229.616 19.1565 229.465 19.5541 229.164 19.855C228.862 20.1569 228.465 20.3069 227.972 20.3069V20.3078ZM227.972 25.2407C227.479 25.2297 227.081 25.076 226.78 24.7806C226.478 24.4842 226.328 24.0903 226.328 23.5961C226.328 23.1028 226.479 22.7053 226.78 22.4043C227.082 22.1025 227.479 21.9524 227.972 21.9524C228.465 21.9524 228.863 22.1034 229.164 22.4043C229.466 22.7062 229.616 23.1028 229.616 23.5961C229.616 24.0894 229.465 24.487 229.164 24.7879C228.862 25.0898 228.465 25.2398 227.972 25.2398V25.2407Z" fill="white"/>
</svg>
