<svg xmlns="http://www.w3.org/2000/svg" id="uuid-17221a39-a89e-48ea-92e3-39a2f162bc26" viewBox="0 0 681.55 151.82"><defs><style>.uuid-3e1bbefb-3a0b-4d9e-a241-aceba9b84cae{fill:#bd001d;}</style></defs><path d="m48.06,110.56h-12.45l-12.45-18.27c-1.94.2-3.88.41-5.82.41h-6.53v17.86H0V41.17h17.35c19.19,0,29.9,10,29.9,25.92,0,10.72-4.79,18.06-13.88,22.04l14.69,21.43Zm-31.12-27.15c13.78,0,19.28-6.02,19.28-16.33s-5.71-16.43-19.28-16.43h-6.13v32.76h6.13Z"></path><path d="m61.73,41.17h44.08v9.49h-33.27v26.94h29.5v9.29h-29.5v14.18h34.7v9.49h-45.52V41.17Z"></path><path d="m121.63,41.17h19.08c22.25,0,37.05,13.88,37.05,34.7s-14.7,34.7-37.05,34.7h-19.08V41.17Zm18.37,59.9c18.07,0,26.54-10.4,26.54-25.2s-8.47-25.21-26.54-25.21h-7.55v50.41h7.55Z"></path><path d="m365.38,41.17h10.81v59.9h32.04v9.49h-42.86V41.17Z"></path><path d="m421.3,41.17h10.72v69.4h-10.72V41.17Z"></path><path d="m445.89,75.86c0-20.72,15-35.52,35.61-35.52,10.62,0,18.99,2.96,24.6,9.29l-7.25,7.25c-3.98-4.18-9.08-6.84-17.35-6.84-14.49,0-24.59,11.02-24.59,25.82s10.2,25.92,25.92,25.92c7.14,0,13.27-1.84,17.14-4.49v-12.25h-18.68v-9.49h28.58v27.04c-4.49,4.08-14.09,8.87-27.04,8.87-21.64,0-36.95-14.89-36.95-35.61Z"></path><path d="m524.66,41.17h10.81v37.35h33.37v-37.35h10.82v69.4h-10.82v-22.45h-33.37v22.45h-10.81V41.17Z"></path><path d="m611.91,50.66h-20.62v-9.49h51.95v9.49h-20.62v59.9h-10.71v-59.9Z"></path><path d="m366.26,124.24h.39l11.48,13.43,11.38-13.43h.39v24.28h-3.57v-12.48c0-1.34.14-3.46.14-3.46,0,0-1.16,1.8-2.15,2.9l-6.04,7.28h-.43l-6.04-7.28c-.92-1.1-2.12-2.9-2.12-2.9,0,0,.15,2.12.15,3.46v12.48h-3.57v-24.28Z"></path><path d="m416.25,124.48h15.26v3.28h-11.52v9.33h10.21v3.22h-10.21v4.91h12.01v3.28h-15.75v-24.03Z"></path><path d="m462.91,127.77h-7.14v-3.28h17.98v3.28h-7.14v20.74h-3.71v-20.74Z"></path><path d="m498.33,124.48h3.75v12.94h11.55v-12.94h3.75v24.03h-3.75v-7.78h-11.55v7.78h-3.75v-24.03Z"></path><path d="m542.63,136.5c0-7.17,5.51-12.33,12.41-12.33s12.37,5.16,12.37,12.33-5.51,12.33-12.37,12.33-12.41-5.15-12.41-12.33Zm20.95,0c0-5.12-3.53-8.98-8.55-8.98s-8.59,3.85-8.59,8.98,3.57,8.98,8.59,8.98,8.55-3.85,8.55-8.98Z"></path><path d="m592.65,124.48h6.61c7.7,0,12.82,4.81,12.82,12.01s-5.08,12.01-12.82,12.01h-6.61v-24.03Zm6.36,20.74c6.25,0,9.18-3.61,9.18-8.73s-2.93-8.73-9.18-8.73h-2.62v17.46h2.62Z"></path><path d="m211.71,135.67H31.16v1.65h182.36c-.58-.55-1.2-1.03-1.77-1.6-.02-.02-.03-.03-.05-.05Zm119.72,0s-.03.04-.05.05c-.57.57-1.19,1.05-1.76,1.59h25.25v-1.65h-23.44Z"></path><path class="uuid-3e1bbefb-3a0b-4d9e-a241-aceba9b84cae" d="m289.78,2.12c-5.4-1.29-11.02-2.01-16.79-2.12l1.62,54.67,15.17-52.56Zm18.47,6.97c-4.95-2.63-10.21-4.73-15.72-6.26l-12.02,53.36,27.74-47.1Zm28.87,26.38c-3.09-4.73-6.68-9.11-10.69-13.05l-36.15,40.87,46.85-27.82Zm-12.75-15.01c-4.16-3.8-8.73-7.14-13.64-9.98l-24.89,48.64,38.53-38.66Zm-91.96-9.98c-4.91,2.84-9.48,6.18-13.64,9.98l38.53,38.66-24.89-48.64ZM270.15,0c-5.77.1-11.39.83-16.79,2.12l15.17,52.56,1.62-54.67Zm75.58,53.16c-1.82-5.38-4.19-10.5-7.08-15.29l-45.12,30.55,52.19-15.26Zm-38.32,36.35c.82-.31,1.65-.57,2.47-.81l-15.22-2.44,8.52,4.32c1.44-.21,2.85-.56,4.23-1.07Zm-75.62,0c1.3-.49,2.61-.89,3.92-1.21l-14.15,2.27c3.67.49,7.05.15,10.23-1.05Zm118-14.24l-53.99,5.01,45.82,10.16c1.24-.22,2.5-.53,3.78-.96l.18-.07c.25-.1.5-.19.75-.28,1.07-.35,1.96-.23,2.34-.18l.22.03.21.02c.49-3.51.76-7.1.76-10.74,0-1-.04-1.99-.08-2.99ZM216.71,22.42c-4.02,3.95-7.6,8.32-10.69,13.05l46.85,27.82-36.15-40.87Zm132.91,49.99c-.42-5.7-1.45-11.23-3.02-16.53l-51.18,18.33,54.21-1.8Zm-103.63,15.11l2.49-1.26-7.74,1.24c1.74-.14,3.49-.13,5.25.02Zm4.62-84.7c-5.51,1.53-10.77,3.63-15.72,6.26l27.74,47.1-12.02-53.36Zm-46.12,35.05c-2.89,4.78-5.26,9.91-7.08,15.29l52.19,15.26-45.12-30.55Zm6.06,49.92c.55.07,1.08.17,1.6.29l35.19-7.8-53.99-5.01c-.04.99-.08,1.99-.08,2.99,0,3.83.3,7.58.84,11.26,1.99-1.02,4.19-1.64,6.49-1.79,3.16-.21,6.52-.37,9.93.07Zm-14-31.92c-1.58,5.3-2.6,10.83-3.02,16.53l54.21,1.8-51.18-18.33Z"></path><path d="m196.03,99.22c-.45-1.67-.83-3.06-1.25-4.61,1.86-1.36,3.97-2.04,6.14-2.19,3-.2,6.06-.34,9.03.04,2.58.33,5.04,1.53,7.6,2.15,5.35,1.29,10.68,1.28,15.9-.7,6.59-2.49,13.13-2.38,19.75,0,6.04,2.18,12.2,2.23,18.2-.09,5.02-1.94,10.15-2.01,15.3-1.29,2.36.33,4.57,1.61,6.92,2.16,5.19,1.22,10.36,1.09,15.42-.78,6.47-2.4,12.92-2.44,19.44-.06,6.09,2.22,12.25,2.13,18.4.1.31-.1.6-.24.91-.34.09-.03.21.01.67.06-.16.86-.41,1.7-.45,2.55-.14,3.01-2,4.08-4.67,4.49-4.65.71-9.32.96-13.74-.82-5.35-2.15-10.82-2.52-16.38-1.58-2.42.41-4.71,1.57-7.11,2.16-5.1,1.25-10.17,1.03-15.12-.83-6.59-2.48-13.2-2.47-19.78-.06-5.91,2.17-11.86,2.31-17.74.16-6.84-2.5-13.5-2.52-20.37,0-5.95,2.18-12.05,2.07-18.06-.2-5.57-2.11-11.25-2.35-16.99-.69-.6.17-1.23.23-2.02.37Z"></path><path d="m344.63,107.41c-.94,2.09-1.65,3.88-2.56,5.57-.23.43-1.07.72-1.65.76-4.3.3-8.46-.21-12.55-1.75-6.14-2.3-12.4-2.12-18.54.14-6.36,2.34-12.63,2.27-18.98-.06-6.43-2.36-12.85-2.16-19.29.24-5.87,2.19-11.86,2.19-17.75.01-6.83-2.53-13.53-2.4-20.37.09-5.7,2.07-11.59,2.18-17.28-.02-4.73-1.83-9.51-2.23-14.46-1.63-.21.03-.43.03-.64.01-.1,0-.2-.07-.63-.22-.57-1.4-1.22-3.02-1.99-4.92,3.3-.85,6.38-1.7,9.55-1.03,3.89.82,7.7,2,11.59,2.85,4.62,1.01,9.29.92,13.7-.84,6.8-2.71,13.52-2.78,20.35-.23,5.99,2.23,12,2.25,18.02-.02,6.81-2.57,13.55-2.42,20.37.21,5.53,2.13,11.3,2.11,16.8.04,6.83-2.58,13.53-2.85,20.35-.24,4.66,1.79,9.43,2.1,14.3,1.06.4-.08.83-.01,1.67-.01Z"></path><path d="m333.77,126.45c-2.72-.85-5.06-1.65-7.44-2.32-5.67-1.6-11.3-1.47-16.83.6-6.22,2.32-12.47,2.46-18.68.15-6.56-2.44-13.04-2.37-19.59,0-6.1,2.21-12.21,2.18-18.35-.08-6.46-2.38-12.94-2.34-19.45.08-5.07,1.89-10.28,2.2-15.57.77-3.36-.91-6.77-1.68-10.15-2.53-.31-.08-.7-.17-.86-.39-1.18-1.69-2.32-3.41-3.47-5.13.1-.16.19-.31.29-.47,1.8,0,3.63-.23,5.38.06,2.22.37,4.41,1.04,6.54,1.79,5.71,2.02,11.39,2.16,17.09.07,4.26-1.56,8.64-2.53,13.16-1.96,2.64.34,5.26,1.12,7.8,1.98,5.51,1.87,11.04,2.13,16.48.14,4.44-1.62,8.93-2.63,13.61-2.12,2.49.27,4.97.99,7.33,1.85,6.64,2.42,13.05,1.79,19.56-.62,4.19-1.55,8.62-1.93,13.04-.84,3.6.89,7.16,1.93,10.76,2.83.97.24,2,.25,3.39.4-1.43,2.02-2.69,3.81-4.05,5.73Z"></path><path d="m213.4,130.82c1.24.37,2.2.66,3.15.95.77.23,1.53.52,2.32.67,1.53.28,3.1.75,4.62.65,2.78-.18,5.7-.26,8.26-1.21,4.92-1.83,9.9-2.74,15.05-2.12,2.58.31,5.09,1.33,7.6,2.11,5.2,1.62,10.43,1.79,15.54-.13,4.91-1.84,9.93-2.61,15.07-1.97,2.42.3,4.78,1.25,7.13,2.03,5.3,1.75,10.63,1.86,15.83-.11,4.81-1.83,9.72-2.48,14.76-1.93,2.13.23,4.18,1.09,6.76,1.79-1.74,1.83-3.08,3.23-4.31,4.52-1.83-.2-3.4-.36-4.8-.51-2.18.16-4.25.09-6.23.51-2.73.57-5.38,1.54-8.08,2.27-5.05,1.37-10.07,1.07-14.93-.74-6.71-2.5-13.35-2.51-20.05-.04-5.89,2.17-11.85,2.2-17.74.05-6.76-2.47-13.45-2.55-20.2.02-3.48,1.32-7.12,1.77-10.82,1.41-.7-.07-1.48-.46-2-.94-2.23-2.04-4.39-4.16-6.55-6.27-.16-.15-.19-.44-.4-.99Z"></path><path d="m316.91,142.74c-1.44.96-2.8,2.05-4.32,2.86-3.7,1.98-7.35,4.17-11.27,5.6-2,.73-4.57.26-6.8-.16-2.73-.51-5.32-1.8-8.06-2.27-5.25-.9-10.43-.62-15.53,1.36-5.73,2.22-11.67,2.26-17.4.05-5-1.94-10.04-2.03-15.23-1.6-1.1.09-2.33-.12-3.34-.56-1.6-.69-3.06-1.7-4.57-2.57,0-.21,0-.43,0-.64,3.01-.84,5.98-1.9,9.05-2.47,5.48-1.02,10.67.35,15.79,2.27,1.47.55,3.18.56,4.78.63,4.39.18,8.61-.23,12.85-1.83,5.7-2.16,11.57-1.8,17.4.3,6.55,2.36,13.18,2.33,19.78-.14,2.11-.79,4.32-1.56,6.65-1.26.07.15.15.29.22.44Z"></path><path d="m666.6,63.55c-8.25,0-14.96-6.71-14.96-14.96s6.71-14.96,14.96-14.96,14.96,6.71,14.96,14.96-6.71,14.96-14.96,14.96Zm0-26.88c-6.57,0-11.92,5.35-11.92,11.92s5.35,11.92,11.92,11.92,11.92-5.35,11.92-11.92-5.35-11.92-11.92-11.92Z"></path><path d="m665.78,47.38c.84,0,1.44-.17,1.81-.49.36-.3.56-.82.56-1.55s-.2-1.21-.56-1.53c-.36-.3-.97-.46-1.81-.46h-1.7v4.02h1.7m-1.7,2.78v5.92h-4.04v-15.66h6.17c2.07,0,3.57.35,4.53,1.05.97.68,1.44,1.78,1.44,3.28,0,1.03-.24,1.88-.74,2.55-.5.65-1.25,1.15-2.26,1.46.56.14,1.05.43,1.49.87.44.44.88,1.11,1.32,2.02l2.2,4.43h-4.3l-1.91-3.89c-.38-.77-.77-1.32-1.17-1.59-.39-.29-.93-.44-1.58-.44h-1.14"></path></svg>